# xmcd CD database file
#
# Track frame offsets:
#	150
#	35309
#	57655
#	77415
#	88148
#	118279
#	138774
#
# Disc length: 2123 seconds
#
# Revision: 0
# Processed by: cddbd v1.5.2PL0 Copyright (c) Steve Scherf et al.
# Submitted via: CDex 1.51
#
DISCID=58084907
DTITLE=Kevin Figes - Picture of You
DYEAR=2006
DGENRE=Jazz
TTITLE0=alone together
TTITLE1=picture of you
TTITLE2=what you wish
TTITLE3=body and soul
TTITLE4=thoughts
TTITLE5=little miles
TTITLE6=clutter
EXTD=YEAR: 2006
EXTT0=
EXTT1=
EXTT2=
EXTT3=
EXTT4=
EXTT5=
EXTT6=
PLAYORDER=
